<svg xmlns="http://www.w3.org/2000/svg" viewBox="0 0 64 64" id="share-ability"><path d="M39.61,64H12.07a.49.49,0,0,1-.4-.21.51.51,0,0,1-.06-.45c.33-.93.94-3.12,1.18-4.08A27.23,27.23,0,0,0,8.86,37.09C5.05,31.21.2,19.69,10.5,8.68,17.85.84,27.56-.33,34.41.07A25.72,25.72,0,0,1,50.82,6.88,19.79,19.79,0,0,1,57.13,21a13.77,13.77,0,0,1-1.31,5.88,4.18,4.18,0,0,0,0,3.85c.24.44.54,1,.85,1.49,1.92,3.3,3.35,5.93,2.92,7.29a1.21,1.21,0,0,1-.65.76,13.44,13.44,0,0,1-2.75.86,20.57,20.57,0,0,0,.1,3.36,1.46,1.46,0,0,1-.56,1.35l-.9.6.34.77a1.41,1.41,0,0,1,0,1,5.22,5.22,0,0,1-1.49,2,2.1,2.1,0,0,0-.07,1.58,5.12,5.12,0,0,1-.21,3.79A3.08,3.08,0,0,1,51.36,57a16,16,0,0,1-4.8.07l-1-.07a4.85,4.85,0,0,0-3.94,1.47,6,6,0,0,0-1.57,4.82.89.89,0,0,1,0,.33A.49.49,0,0,1,39.61,64ZM12.75,63H39.1A6.88,6.88,0,0,1,41,57.78,6,6,0,0,1,45.68,56l1,.08A15.39,15.39,0,0,0,51.16,56a2.12,2.12,0,0,0,1.45-.95,4.07,4.07,0,0,0,.12-3A2.93,2.93,0,0,1,53,49.63a.24.24,0,0,1,.08-.09,4.37,4.37,0,0,0,1.27-1.61.42.42,0,0,0,0-.31l-.51-1.15a.49.49,0,0,1,.18-.61l1.22-.81a.51.51,0,0,0,.15-.44,20.8,20.8,0,0,1-.07-3.93.48.48,0,0,1,.41-.44,13.66,13.66,0,0,0,2.87-.85.22.22,0,0,0,.13-.16c.33-1.06-1.65-4.47-2.83-6.5-.32-.55-.62-1.07-.87-1.52a5.19,5.19,0,0,1,0-4.72A12.79,12.79,0,0,0,56.14,21a18.78,18.78,0,0,0-6-13.43A24.77,24.77,0,0,0,34.35,1.05c-6.64-.39-16,.74-23.13,8.31h0C1.38,19.88,6,30.91,9.68,36.56A28.14,28.14,0,0,1,13.75,59.5C13.54,60.31,13.1,61.92,12.75,63ZM10.86,9h0Z"></path><path d="M40.3 39.55a4.22 4.22 0 1 1 4.21-4.21A4.23 4.23 0 0 1 40.3 39.55zm0-7.44a3.23 3.23 0 1 0 3.23 3.23A3.23 3.23 0 0 0 40.3 32.11zM40.3 20a4.22 4.22 0 1 1 4.21-4.22A4.23 4.23 0 0 1 40.3 20zm0-7.45a3.23 3.23 0 1 0 3.23 3.23A3.23 3.23 0 0 0 40.3 12.51zM22.63 30.62a5.08 5.08 0 1 1 5.07-5.08A5.09 5.09 0 0 1 22.63 30.62zm0-9.17a4.09 4.09 0 1 0 4.09 4.09A4.09 4.09 0 0 0 22.63 21.45z"></path><path d="M36.59 36a.59.59 0 0 1-.23-.05l-11.58-6a.49.49 0 0 1-.21-.66.48.48 0 0 1 .66-.21l11.58 6a.5.5 0 0 1 .21.67A.49.49 0 0 1 36.59 36zM38.27 32.72a.59.59 0 0 1-.23 0L26.9 26.88a.49.49 0 0 1 .45-.88L38.5 31.79a.51.51 0 0 1 .21.67A.49.49 0 0 1 38.27 32.72zM25 22.13a.5.5 0 0 1-.44-.27.48.48 0 0 1 .21-.66l11.58-6a.48.48 0 0 1 .66.21.5.5 0 0 1-.21.67l-11.58 6A.46.46 0 0 1 25 22.13zM27.12 25.14a.49.49 0 0 1-.22-.93L38 18.41a.5.5 0 1 1 .46.88L27.35 25.08A.46.46 0 0 1 27.12 25.14z"></path></svg>