<svg xmlns="http://www.w3.org/2000/svg" width="26" height="26" id="fitness"><path style="line-height:normal;text-indent:0;text-align:start;text-decoration-line:none;text-decoration-style:solid;text-decoration-color:#000;text-transform:none;block-progression:tb;isolation:auto;mix-blend-mode:normal" d="M13 0C5.826 0 0 5.826 0 13s5.826 13 13 13 13-5.826 13-13S20.174 0 13 0zm0 1.002c6.633 0 12 5.365 12 11.998 0 6.633-5.367 12-12 12S1 19.633 1 13 6.367 1.002 13 1.002zm2.982 4.691c-.385 0-.77.145-1.06.436a1.508 1.508 0 0 0 0 2.121l.353.354-6.363 6.363-.353-.352a1.51 1.51 0 0 0-2.123 0 1.508 1.508 0 0 0 0 2.121l2.83 2.828c.581.582 1.54.582 2.12 0a1.508 1.508 0 0 0 0-2.12l-.353-.354 6.363-6.365.354.353c.581.582 1.54.582 2.121 0a1.508 1.508 0 0 0 0-2.121l-2.828-2.828a1.495 1.495 0 0 0-1.06-.436zm0 .993c.127 0 .253.049.354.15l2.828 2.828a.488.488 0 0 1 0 .707.488.488 0 0 1-.707 0l-.353-.353-2.122-2.122-.353-.353a.488.488 0 0 1 0-.707.497.497 0 0 1 .353-.15zm0 2.625.707.707-6.363 6.365-.707-.707 6.363-6.365zM7.496 15.17c.126 0 .253.051.354.152l.353.354-.014.013.354.354 1.77 1.768.013-.014.354.353a.488.488 0 0 1 0 .707.488.488 0 0 1-.707 0l-2.83-2.828a.488.488 0 0 1 0-.707.5.5 0 0 1 .353-.152z" color="#000" font-family="sans-serif" font-weight="400" overflow="visible"></path></svg>