<svg xmlns="http://www.w3.org/2000/svg" viewBox="0 0 64 64" id="running"><path d="M61 55.2783V47a1.0007 1.0007 0 0 0-.7256-.9619L47.0977 42.2734a20.61 20.61 0 0 0-.057-4.9919 2.4146 2.4146 0 0 1 2.2708.5066 1 1 0 0 0 1.2969-1.5235 4.294 4.294 0 0 0-3.9426-.9464 17.3936 17.3936 0 0 0-1.7926-4.4392 5.0108 5.0108 0 0 1 2.743.372.9995.9995 0 1 0 .7676-1.8457 6.7966 6.7966 0 0 0-4.6807-.3028 19.683 19.683 0 0 0-3.0165-3.2167 5.647 5.647 0 0 1 4.2382-.5235 1 1 0 1 0 .4629-1.9453 7.589 7.589 0 0 0-6.3817 1.1776 19.0721 19.0721 0 0 0-1.981-1.2056l8.682-8.682a.9994.9994 0 0 0 0-1.414l-11-11a.9994.9994 0 0 0-1.414 0l-9.5 9.5L7.9191 27.6668a1.98 1.98 0 0 0-.9142-.24 1.9054 1.9054 0 0 0-1.4321.5859L3 30.5859a2.002 2.002 0 0 0 0 2.8282L29.8281 60.2422A5.9579 5.9579 0 0 0 34.0713 62H60a2.0027 2.0027 0 0 0 2-2V57A1.9938 1.9938 0 0 0 61 55.2783zM25.4432 13.2722c.0025-.1116.0072-.2094.0129-.2933l.0013-.0222L34 4.4141 43.5859 14l-8.76 8.76c-.0464-.01-.0935-.0194-.1394-.0295-.5022-.11-.98-.2309-1.43-.3647-.0719-.0214-.14-.0444-.211-.0663-.458-.1426-.8957-.2939-1.3007-.4585-.0192-.0078-.0365-.0164-.0556-.0242-.401-.165-.7738-.341-1.1256-.5244-.0409-.0213-.0845-.0417-.1248-.0633-.34-.1823-.6547-.3736-.9509-.57-.0517-.0343-.1039-.0684-.1543-.103q-.425-.2928-.7914-.6014c-.0431-.0362-.0842-.0729-.1262-.1094-.2419-.2109-.4687-.4252-.6735-.6432-.022-.0235-.0414-.0472-.0631-.0707q-.3012-.3277-.5523-.6617c-.0131-.0173-.0279-.0345-.0408-.0519-.1672-.226-.3144-.4529-.45-.6792-.022-.0368-.0452-.0736-.0664-.11-.1264-.2184-.2385-.4357-.3388-.6509-.0189-.04-.0371-.0806-.055-.1209-.0961-.2152-.1821-.4284-.2554-.6369-.0107-.03-.02-.06-.03-.09-.0734-.2168-.1384-.43-.19-.636L25.7 15.49c-.0529-.2094-.0935-.41-.1278-.6045-.0045-.0254-.01-.0515-.0141-.0766-.03-.182-.0531-.3554-.07-.52-.0031-.03-.0064-.0608-.0091-.0906-.0148-.1585-.025-.309-.03-.4477l-.0022-.0727c-.0041-.138-.0055-.2685-.0033-.3821zm-1.8714 1.5706c.0075.0526.02.11.0282.1639.0166.1037.0341.2079.0545.3154.0171.0907.0361.1821.0561.2753s.0424.1865.0655.2812c.0244.1011.0478.2009.076.3043q.0684.2494.1525.5069c.0373.1147.081.231.1234.3476.03.083.0611.1658.0942.25.0487.1238.1.2474.1546.3726.0321.073.0677.1464.102.22q.1785.3831.4.77c.028.0488.0533.0976.0825.1465.081.1364.1695.2721.2594.4083q.0678.1025.139.2049c.0963.1388.195.2768.3012.4146.0326.0423.0689.084.1025.1262a10.6792 10.6792 0 0 0 .709.8019c.0541.0555.1059.1114.1619.1665.1325.13.2725.2586.4161.3863.0724.0643.1476.1278.223.1914a12.4442 12.4442 0 0 0 1.6176 1.15c.1161.07.232.14.3531.2077q.2606.1463.5365.2861c.1495.076.3062.1488.4628.2218.1979.0922.3952.1844.6048.2716q.447.1863.93.3565c.1646.0577.3384.1109.51.1656q.3813.1221.7839.2339c.1632.0449.326.09.4947.1319.423.1062.86.2055 1.3183.2934.0165.0031.0306.0073.047.01l.0151.0027.0191.0041.0064.0006c.2408.0531.4948.1.7524.1381a14.5382 14.5382 0 0 1 1.7819.9828 9.1516 9.1516 0 0 0-1.5954 2.5016 1 1 0 0 0 .545 1.3047.9839.9839 0 0 0 .38.0752.9983.9983 0 0 0 .9248-.62 7.8008 7.8008 0 0 1 1.3745-2.0869 17.1865 17.1865 0 0 1 2.7626 2.8056 8.3275 8.3275 0 0 0-2.5609 2.5431.9983.9983 0 0 0 .3272 1.372.9878.9878 0 0 0 .5244.1494 1.0047 1.0047 0 0 0 .8515-.4716A6.7784 6.7784 0 0 1 43.0227 31.59a15.4849 15.4849 0 0 1 1.7841 4.5069 7.598 7.598 0 0 0-1.53 1.2133 1 1 0 0 0 1.4453 1.3819 5.5367 5.5367 0 0 1 .4291-.3885 19.7563 19.7563 0 0 1-.141 4.5545 1.0014 1.0014 0 0 0 .7158 1.1035L59 47.7539V55H35.7012a3.0167 3.0167 0 0 1-2.1612-.9189L28.9357 49.3c-.4308-15.6336-3.2205-26.2257-8.2921-31.5287zm-4.3344 4.3344c3.2437 3.4385 6.8792 11.0745 7.6214 27.9656l-3.9474-4.0991C23.6462 30.12 19.5762 24.9385 15.46 22.9544zM13.93 24.4847c4.8183 1.8692 7.2389 7.553 7.0563 16.56L9.4009 29.0137zM34.0713 60a3.9711 3.9711 0 0 1-2.8286-1.1719L4.4141 32l2.5732-2.5723L32.1 55.4707A5.0248 5.0248 0 0 0 35.6992 57H60l.002 3zM9 48a1 1 0 0 0 0-2H3a1 1 0 0 0 0 2zM18 53H7a1 1 0 0 0 0 2H18a1 1 0 0 0 0-2zM16 60H4a1 1 0 0 0 0 2H16a1 1 0 0 0 0-2z"></path></svg>